0
SECTION
2
HEADER
9
$ACADVER
1
AC1009
9
$INSUNITS
70
4
0
ENDSEC
0
SECTION
2
TABLES
0
TABLE
2
LAYER
70
7
0
LAYER
2
0
70
0
62
7
6
CONTINUOUS
0
LAYER
2
OUTLINE
70
0
62
7
6
CONTINUOUS
0
LAYER
2
SECTION
70
0
62
3
6
CONTINUOUS
0
LAYER
2
DIM
70
0
62
1
6
CONTINUOUS
0
LAYER
2
TEXT
70
0
62
5
6
CONTINUOUS
0
LAYER
2
BALLOON
70
0
62
2
6
CONTINUOUS
0
LAYER
2
TABLE
70
0
62
4
6
CONTINUOUS
0
ENDTAB
0
ENDSEC
0
SECTION
2
ENTITIES
0
LINE
8
OUTLINE
10
0
20
0
30
0
11
8550
21
0
31
0
0
LINE
8
OUTLINE
10
8550
20
0
30
0
11
8550
21
2200
31
0
0
LINE
8
OUTLINE
10
8550
20
2200
30
0
11
0
21
2200
31
0
0
LINE
8
OUTLINE
10
0
20
2200
30
0
11
0
21
0
31
0
0
TEXT
8
TEXT
10
120
20
1100
30
0
40
60
1
MIXING
0
LINE
8
SECTION
10
1050
20
0
30
0
11
1050
21
2200
31
0
0
TEXT
8
TEXT
10
1170
20
1100
30
0
40
60
1
COIL
0
LINE
8
SECTION
10
2550
20
0
30
0
11
2550
21
2200
31
0
0
TEXT
8
TEXT
10
2670
20
1100
30
0
40
60
1
FAN
0
LINE
8
SECTION
10
4050
20
0
30
0
11
4050
21
2200
31
0
0
TEXT
8
TEXT
10
4170
20
1100
30
0
40
60
1
HUMID
0
LINE
8
SECTION
10
5850
20
0
30
0
11
5850
21
2200
31
0
0
TEXT
8
TEXT
10
5970
20
1100
30
0
40
60
1
DAMPER
0
LINE
8
SECTION
10
6750
20
0
30
0
11
6750
21
2200
31
0
0
TEXT
8
TEXT
10
6870
20
1100
30
0
40
60
1
SILENCER
0
LINE
8
OUTLINE
10
0
20
100
30
0
11
8550
21
100
31
0
0
LINE
8
OUTLINE
10
0
20
2100
30
0
11
8550
21
2100
31
0
0
TEXT
8
DIM
10
8750
20
50
30
0
40
60
1
BF HT=100
0
TEXT
8
DIM
10
8750
20
1100
30
0
40
60
1
CASING H=2000
0
LINE
8
DIM
10
0
20
1100
30
0
11
8550
21
1100
31
0
0
LINE
8
DIM
10
0
20
-300
30
0
11
8550
21
-300
31
0
0
TEXT
8
TEXT
10
4075
20
-420
30
0
40
70
1
L=8550
0
LINE
8
DIM
10
-300
20
0
30
0
11
-300
21
2200
31
0
0
TEXT
8
TEXT
10
-900
20
1100
30
0
40
70
1
H=2200
0
TEXT
8
TEXT
10
0
20
2500
30
0
40
90
1
EDIM EU-25-2123-630SS - FRONT - DIM 25 (W2900 H2200)
0
ENDSEC
0
EOF
