0
SECTION
2
HEADER
9
$ACADVER
1
AC1009
9
$INSUNITS
70
4
0
ENDSEC
0
SECTION
2
TABLES
0
TABLE
2
LAYER
70
7
0
LAYER
2
0
70
0
62
7
6
CONTINUOUS
0
LAYER
2
OUTLINE
70
0
62
7
6
CONTINUOUS
0
LAYER
2
SECTION
70
0
62
3
6
CONTINUOUS
0
LAYER
2
DIM
70
0
62
1
6
CONTINUOUS
0
LAYER
2
TEXT
70
0
62
5
6
CONTINUOUS
0
LAYER
2
BALLOON
70
0
62
2
6
CONTINUOUS
0
LAYER
2
TABLE
70
0
62
4
6
CONTINUOUS
0
ENDTAB
0
ENDSEC
0
SECTION
2
ENTITIES
0
LINE
8
OUTLINE
10
0
20
0
30
0
11
3900
21
0
31
0
0
LINE
8
OUTLINE
10
3900
20
0
30
0
11
3900
21
2650
31
0
0
LINE
8
OUTLINE
10
3900
20
2650
30
0
11
0
21
2650
31
0
0
LINE
8
OUTLINE
10
0
20
2650
30
0
11
0
21
0
31
0
0
TEXT
8
TEXT
10
120
20
1325
30
0
40
60
1
FILTER
0
LINE
8
SECTION
10
1200
20
0
30
0
11
1200
21
2650
31
0
0
TEXT
8
TEXT
10
1320
20
1325
30
0
40
60
1
COIL
0
LINE
8
SECTION
10
2250
20
0
30
0
11
2250
21
2650
31
0
0
TEXT
8
TEXT
10
2370
20
1325
30
0
40
60
1
FAN
0
LINE
8
SECTION
10
3150
20
0
30
0
11
3150
21
2650
31
0
0
TEXT
8
TEXT
10
3270
20
1325
30
0
40
60
1
SILENCER
0
LINE
8
OUTLINE
10
0
20
100
30
0
11
3900
21
100
31
0
0
LINE
8
OUTLINE
10
0
20
2550
30
0
11
3900
21
2550
31
0
0
TEXT
8
DIM
10
4100
20
50
30
0
40
60
1
FRAME=100
0
TEXT
8
DIM
10
4100
20
1325
30
0
40
60
1
CASING H=2450
0
LINE
8
DIM
10
0
20
1325
30
0
11
3900
21
1325
31
0
0
LINE
8
DIM
10
0
20
-300
30
0
11
3900
21
-300
31
0
0
TEXT
8
TEXT
10
1750
20
-420
30
0
40
70
1
L=3900
0
LINE
8
DIM
10
-300
20
0
30
0
11
-300
21
2650
31
0
0
TEXT
8
TEXT
10
-900
20
1325
30
0
40
70
1
H=2650
0
TEXT
8
TEXT
10
0
20
2950
30
0
40
90
1
EDIM EU-10-2123-630SS - FRONT - DIM 10 (W2850 H2650)
0
ENDSEC
0
EOF
