0
SECTION
2
HEADER
9
$ACADVER
1
AC1009
9
$INSUNITS
70
4
0
ENDSEC
0
SECTION
2
TABLES
0
TABLE
2
LAYER
70
7
0
LAYER
2
0
70
0
62
7
6
CONTINUOUS
0
LAYER
2
OUTLINE
70
0
62
7
6
CONTINUOUS
0
LAYER
2
SECTION
70
0
62
3
6
CONTINUOUS
0
LAYER
2
DIM
70
0
62
1
6
CONTINUOUS
0
LAYER
2
TEXT
70
0
62
5
6
CONTINUOUS
0
LAYER
2
BALLOON
70
0
62
2
6
CONTINUOUS
0
LAYER
2
TABLE
70
0
62
4
6
CONTINUOUS
0
ENDTAB
0
ENDSEC
0
SECTION
2
ENTITIES
0
LINE
8
OUTLINE
10
0
20
0
30
0
11
3600
21
0
31
0
0
LINE
8
OUTLINE
10
3600
20
0
30
0
11
3600
21
2410
31
0
0
LINE
8
OUTLINE
10
3600
20
2410
30
0
11
0
21
2410
31
0
0
LINE
8
OUTLINE
10
0
20
2410
30
0
11
0
21
0
31
0
0
TEXT
8
TEXT
10
120
20
1205
30
0
40
60
1
MIXING
0
LINE
8
SECTION
10
1200
20
0
30
0
11
1200
21
2410
31
0
0
TEXT
8
TEXT
10
1320
20
1205
30
0
40
60
1
FILTER
0
LINE
8
SECTION
10
2250
20
0
30
0
11
2250
21
2410
31
0
0
TEXT
8
TEXT
10
2370
20
1205
30
0
40
60
1
HUMID
0
LINE
8
SECTION
10
2850
20
0
30
0
11
2850
21
2410
31
0
0
TEXT
8
TEXT
10
2970
20
1205
30
0
40
60
1
DAMPER
0
LINE
8
OUTLINE
10
0
20
80
30
0
11
3600
21
80
31
0
0
LINE
8
OUTLINE
10
0
20
2330
30
0
11
3600
21
2330
31
0
0
TEXT
8
DIM
10
3800
20
40
30
0
40
60
1
FRAME=80
0
TEXT
8
DIM
10
3800
20
1205
30
0
40
60
1
CASING H=2250
0
LINE
8
DIM
10
0
20
1205
30
0
11
3600
21
1205
31
0
0
LINE
8
DIM
10
0
20
-300
30
0
11
3600
21
-300
31
0
0
TEXT
8
TEXT
10
1600
20
-420
30
0
40
70
1
L=3600
0
LINE
8
DIM
10
-300
20
0
30
0
11
-300
21
2410
31
0
0
TEXT
8
TEXT
10
-900
20
1205
30
0
40
70
1
H=2410
0
TEXT
8
TEXT
10
0
20
2710
30
0
40
90
1
EDIM EU-25-2123-630SS - FRONT - DIM 25 (W2100 H2410)
0
ENDSEC
0
EOF
