0
SECTION
2
HEADER
9
$ACADVER
1
AC1009
9
$INSUNITS
70
4
0
ENDSEC
0
SECTION
2
TABLES
0
TABLE
2
LAYER
70
7
0
LAYER
2
0
70
0
62
7
6
CONTINUOUS
0
LAYER
2
OUTLINE
70
0
62
7
6
CONTINUOUS
0
LAYER
2
SECTION
70
0
62
3
6
CONTINUOUS
0
LAYER
2
DIM
70
0
62
1
6
CONTINUOUS
0
LAYER
2
TEXT
70
0
62
5
6
CONTINUOUS
0
LAYER
2
BALLOON
70
0
62
2
6
CONTINUOUS
0
LAYER
2
TABLE
70
0
62
4
6
CONTINUOUS
0
ENDTAB
0
ENDSEC
0
SECTION
2
ENTITIES
0
LINE
8
OUTLINE
10
0
20
0
30
0
11
5400
21
0
31
0
0
LINE
8
OUTLINE
10
5400
20
0
30
0
11
5400
21
2640
31
0
0
LINE
8
OUTLINE
10
5400
20
2640
30
0
11
0
21
2640
31
0
0
LINE
8
OUTLINE
10
0
20
2640
30
0
11
0
21
0
31
0
0
TEXT
8
TEXT
10
120
20
1320
30
0
40
60
1
MIXING
0
LINE
8
SECTION
10
1500
20
0
30
0
11
1500
21
2640
31
0
0
TEXT
8
TEXT
10
1620
20
1320
30
0
40
60
1
COIL
0
LINE
8
SECTION
10
2250
20
0
30
0
11
2250
21
2640
31
0
0
TEXT
8
TEXT
10
2370
20
1320
30
0
40
60
1
FAN
0
LINE
8
SECTION
10
3300
20
0
30
0
11
3300
21
2640
31
0
0
TEXT
8
TEXT
10
3420
20
1320
30
0
40
60
1
DAMPER
0
LINE
8
SECTION
10
3900
20
0
30
0
11
3900
21
2640
31
0
0
TEXT
8
TEXT
10
4020
20
1320
30
0
40
60
1
SILENCER
0
LINE
8
OUTLINE
10
0
20
120
30
0
11
5400
21
120
31
0
0
LINE
8
OUTLINE
10
0
20
2520
30
0
11
5400
21
2520
31
0
0
TEXT
8
DIM
10
5600
20
60
30
0
40
60
1
FRAME=120
0
TEXT
8
DIM
10
5600
20
1320
30
0
40
60
1
CASING H=2400
0
LINE
8
DIM
10
0
20
1320
30
0
11
5400
21
1320
31
0
0
LINE
8
DIM
10
0
20
-300
30
0
11
5400
21
-300
31
0
0
TEXT
8
TEXT
10
2500
20
-420
30
0
40
70
1
L=5400
0
LINE
8
DIM
10
-300
20
0
30
0
11
-300
21
2640
31
0
0
TEXT
8
TEXT
10
-900
20
1320
30
0
40
70
1
H=2640
0
TEXT
8
TEXT
10
0
20
2940
30
0
40
90
1
EDIM EU-10-2123-630SS - FRONT - DIM 10 (W3000 H2640)
0
ENDSEC
0
EOF
