0
SECTION
2
HEADER
9
$ACADVER
1
AC1009
9
$INSUNITS
70
4
0
ENDSEC
0
SECTION
2
TABLES
0
TABLE
2
LAYER
70
7
0
LAYER
2
0
70
0
62
7
6
CONTINUOUS
0
LAYER
2
OUTLINE
70
0
62
7
6
CONTINUOUS
0
LAYER
2
SECTION
70
0
62
3
6
CONTINUOUS
0
LAYER
2
DIM
70
0
62
1
6
CONTINUOUS
0
LAYER
2
TEXT
70
0
62
5
6
CONTINUOUS
0
LAYER
2
BALLOON
70
0
62
2
6
CONTINUOUS
0
LAYER
2
TABLE
70
0
62
4
6
CONTINUOUS
0
ENDTAB
0
ENDSEC
0
SECTION
2
ENTITIES
0
LINE
8
OUTLINE
10
0
20
0
30
0
11
7650
21
0
31
0
0
LINE
8
OUTLINE
10
7650
20
0
30
0
11
7650
21
2050
31
0
0
LINE
8
OUTLINE
10
7650
20
2050
30
0
11
0
21
2050
31
0
0
LINE
8
OUTLINE
10
0
20
2050
30
0
11
0
21
0
31
0
0
TEXT
8
TEXT
10
120
20
1025
30
0
40
60
1
MIXING
0
LINE
8
SECTION
10
1050
20
0
30
0
11
1050
21
2050
31
0
0
TEXT
8
TEXT
10
1170
20
1025
30
0
40
60
1
FILTER
0
LINE
8
SECTION
10
2100
20
0
30
0
11
2100
21
2050
31
0
0
TEXT
8
TEXT
10
2220
20
1025
30
0
40
60
1
COIL
0
LINE
8
SECTION
10
2850
20
0
30
0
11
2850
21
2050
31
0
0
TEXT
8
TEXT
10
2970
20
1025
30
0
40
60
1
FAN
0
LINE
8
SECTION
10
4650
20
0
30
0
11
4650
21
2050
31
0
0
TEXT
8
TEXT
10
4770
20
1025
30
0
40
60
1
HUMID
0
LINE
8
SECTION
10
6150
20
0
30
0
11
6150
21
2050
31
0
0
TEXT
8
TEXT
10
6270
20
1025
30
0
40
60
1
DAMPER
0
LINE
8
OUTLINE
10
0
20
100
30
0
11
7650
21
100
31
0
0
LINE
8
OUTLINE
10
0
20
1950
30
0
11
7650
21
1950
31
0
0
TEXT
8
DIM
10
7850
20
50
30
0
40
60
1
FRAME=100
0
TEXT
8
DIM
10
7850
20
1025
30
0
40
60
1
CASING H=1850
0
LINE
8
DIM
10
0
20
1025
30
0
11
7650
21
1025
31
0
0
LINE
8
DIM
10
0
20
-300
30
0
11
7650
21
-300
31
0
0
TEXT
8
TEXT
10
3625
20
-420
30
0
40
70
1
L=7650
0
LINE
8
DIM
10
-300
20
0
30
0
11
-300
21
2050
31
0
0
TEXT
8
TEXT
10
-900
20
1025
30
0
40
70
1
H=2050
0
TEXT
8
TEXT
10
0
20
2350
30
0
40
90
1
EDIM EU-10-2123-630SS - FRONT - DIM 10 (W1800 H2050)
0
ENDSEC
0
EOF
