0
SECTION
2
HEADER
9
$ACADVER
1
AC1009
9
$INSUNITS
70
4
0
ENDSEC
0
SECTION
2
TABLES
0
TABLE
2
LAYER
70
7
0
LAYER
2
0
70
0
62
7
6
CONTINUOUS
0
LAYER
2
OUTLINE
70
0
62
7
6
CONTINUOUS
0
LAYER
2
SECTION
70
0
62
3
6
CONTINUOUS
0
LAYER
2
DIM
70
0
62
1
6
CONTINUOUS
0
LAYER
2
TEXT
70
0
62
5
6
CONTINUOUS
0
LAYER
2
BALLOON
70
0
62
2
6
CONTINUOUS
0
LAYER
2
TABLE
70
0
62
4
6
CONTINUOUS
0
ENDTAB
0
ENDSEC
0
SECTION
2
ENTITIES
0
LINE
8
OUTLINE
10
0
20
0
30
0
11
5100
21
0
31
0
0
LINE
8
OUTLINE
10
5100
20
0
30
0
11
5100
21
2760
31
0
0
LINE
8
OUTLINE
10
5100
20
2760
30
0
11
0
21
2760
31
0
0
LINE
8
OUTLINE
10
0
20
2760
30
0
11
0
21
0
31
0
0
TEXT
8
TEXT
10
120
20
1380
30
0
40
60
1
MIXING
0
LINE
8
SECTION
10
1050
20
0
30
0
11
1050
21
2760
31
0
0
TEXT
8
TEXT
10
1170
20
1380
30
0
40
60
1
FILTER
0
LINE
8
SECTION
10
2850
20
0
30
0
11
2850
21
2760
31
0
0
TEXT
8
TEXT
10
2970
20
1380
30
0
40
60
1
FAN
0
LINE
8
SECTION
10
3600
20
0
30
0
11
3600
21
2760
31
0
0
TEXT
8
TEXT
10
3720
20
1380
30
0
40
60
1
HUMID
0
LINE
8
OUTLINE
10
0
20
80
30
0
11
5100
21
80
31
0
0
LINE
8
OUTLINE
10
0
20
2680
30
0
11
5100
21
2680
31
0
0
TEXT
8
DIM
10
5300
20
40
30
0
40
60
1
FRAME=80
0
TEXT
8
DIM
10
5300
20
1380
30
0
40
60
1
CASING H=2600
0
LINE
8
DIM
10
0
20
1380
30
0
11
5100
21
1380
31
0
0
LINE
8
DIM
10
0
20
-300
30
0
11
5100
21
-300
31
0
0
TEXT
8
TEXT
10
2350
20
-420
30
0
40
70
1
L=5100
0
LINE
8
DIM
10
-300
20
0
30
0
11
-300
21
2760
31
0
0
TEXT
8
TEXT
10
-900
20
1380
30
0
40
70
1
H=2760
0
TEXT
8
TEXT
10
0
20
3060
30
0
40
90
1
EDIM EU-55-2123-630SS - FRONT - DIM 55 (W2650 H2760)
0
ENDSEC
0
EOF
