0
SECTION
2
HEADER
9
$ACADVER
1
AC1009
9
$INSUNITS
70
4
0
ENDSEC
0
SECTION
2
TABLES
0
TABLE
2
LAYER
70
7
0
LAYER
2
0
70
0
62
7
6
CONTINUOUS
0
LAYER
2
OUTLINE
70
0
62
7
6
CONTINUOUS
0
LAYER
2
SECTION
70
0
62
3
6
CONTINUOUS
0
LAYER
2
DIM
70
0
62
1
6
CONTINUOUS
0
LAYER
2
TEXT
70
0
62
5
6
CONTINUOUS
0
LAYER
2
BALLOON
70
0
62
2
6
CONTINUOUS
0
LAYER
2
TABLE
70
0
62
4
6
CONTINUOUS
0
ENDTAB
0
ENDSEC
0
SECTION
2
ENTITIES
0
LINE
8
OUTLINE
10
0
20
0
30
0
11
3000
21
0
31
0
0
LINE
8
OUTLINE
10
3000
20
0
30
0
11
3000
21
2840
31
0
0
LINE
8
OUTLINE
10
3000
20
2840
30
0
11
0
21
2840
31
0
0
LINE
8
OUTLINE
10
0
20
2840
30
0
11
0
21
0
31
0
0
TEXT
8
TEXT
10
120
20
1420
30
0
40
60
1
MIXING
0
LINE
8
SECTION
10
600
20
0
30
0
11
600
21
2840
31
0
0
TEXT
8
TEXT
10
720
20
1420
30
0
40
60
1
FILTER
0
LINE
8
SECTION
10
1200
20
0
30
0
11
1200
21
2840
31
0
0
TEXT
8
TEXT
10
1320
20
1420
30
0
40
60
1
COIL
0
LINE
8
SECTION
10
1950
20
0
30
0
11
1950
21
2840
31
0
0
TEXT
8
TEXT
10
2070
20
1420
30
0
40
60
1
DAMPER
0
LINE
8
OUTLINE
10
0
20
120
30
0
11
3000
21
120
31
0
0
LINE
8
OUTLINE
10
0
20
2720
30
0
11
3000
21
2720
31
0
0
TEXT
8
DIM
10
3200
20
60
30
0
40
60
1
FRAME=120
0
TEXT
8
DIM
10
3200
20
1420
30
0
40
60
1
CASING H=2600
0
LINE
8
DIM
10
0
20
1420
30
0
11
3000
21
1420
31
0
0
LINE
8
DIM
10
0
20
-300
30
0
11
3000
21
-300
31
0
0
TEXT
8
TEXT
10
1300
20
-420
30
0
40
70
1
OAL=3000
0
LINE
8
DIM
10
-300
20
0
30
0
11
-300
21
2840
31
0
0
TEXT
8
TEXT
10
-900
20
1420
30
0
40
70
1
H=2840
0
TEXT
8
TEXT
10
0
20
3140
30
0
40
90
1
EDIM EU-55-2123-630SS - FRONT - DIM 55 (W1950 H2840)
0
ENDSEC
0
EOF
