0
SECTION
2
HEADER
9
$ACADVER
1
AC1009
9
$INSUNITS
70
4
0
ENDSEC
0
SECTION
2
TABLES
0
TABLE
2
LAYER
70
7
0
LAYER
2
0
70
0
62
7
6
CONTINUOUS
0
LAYER
2
OUTLINE
70
0
62
7
6
CONTINUOUS
0
LAYER
2
SECTION
70
0
62
3
6
CONTINUOUS
0
LAYER
2
DIM
70
0
62
1
6
CONTINUOUS
0
LAYER
2
TEXT
70
0
62
5
6
CONTINUOUS
0
LAYER
2
BALLOON
70
0
62
2
6
CONTINUOUS
0
LAYER
2
TABLE
70
0
62
4
6
CONTINUOUS
0
ENDTAB
0
ENDSEC
0
SECTION
2
ENTITIES
0
LINE
8
OUTLINE
10
0
20
0
30
0
11
3900
21
0
31
0
0
LINE
8
OUTLINE
10
3900
20
0
30
0
11
3900
21
2590
31
0
0
LINE
8
OUTLINE
10
3900
20
2590
30
0
11
0
21
2590
31
0
0
LINE
8
OUTLINE
10
0
20
2590
30
0
11
0
21
0
31
0
0
TEXT
8
TEXT
10
120
20
1295
30
0
40
60
1
MIXING
0
LINE
8
SECTION
10
1200
20
0
30
0
11
1200
21
2590
31
0
0
TEXT
8
TEXT
10
1320
20
1295
30
0
40
60
1
FILTER
0
LINE
8
SECTION
10
2100
20
0
30
0
11
2100
21
2590
31
0
0
TEXT
8
TEXT
10
2220
20
1295
30
0
40
60
1
HUMID
0
LINE
8
SECTION
10
2850
20
0
30
0
11
2850
21
2590
31
0
0
TEXT
8
TEXT
10
2970
20
1295
30
0
40
60
1
SILENCER
0
LINE
8
OUTLINE
10
0
20
120
30
0
11
3900
21
120
31
0
0
LINE
8
OUTLINE
10
0
20
2470
30
0
11
3900
21
2470
31
0
0
TEXT
8
DIM
10
4100
20
60
30
0
40
60
1
FRAME=120
0
TEXT
8
DIM
10
4100
20
1295
30
0
40
60
1
CASING H=2350
0
LINE
8
DIM
10
0
20
1295
30
0
11
3900
21
1295
31
0
0
LINE
8
DIM
10
0
20
-300
30
0
11
3900
21
-300
31
0
0
TEXT
8
TEXT
10
1750
20
-420
30
0
40
70
1
L=3900
0
LINE
8
DIM
10
-300
20
0
30
0
11
-300
21
2590
31
0
0
TEXT
8
TEXT
10
-900
20
1295
30
0
40
70
1
H=2590
0
TEXT
8
TEXT
10
0
20
2890
30
0
40
90
1
EDIM EU-55-2123-630SS - FRONT - DIM 55 (W1850 H2590)
0
ENDSEC
0
EOF
