0
SECTION
2
HEADER
9
$ACADVER
1
AC1009
9
$INSUNITS
70
4
0
ENDSEC
0
SECTION
2
TABLES
0
TABLE
2
LAYER
70
7
0
LAYER
2
0
70
0
62
7
6
CONTINUOUS
0
LAYER
2
OUTLINE
70
0
62
7
6
CONTINUOUS
0
LAYER
2
SECTION
70
0
62
3
6
CONTINUOUS
0
LAYER
2
DIM
70
0
62
1
6
CONTINUOUS
0
LAYER
2
TEXT
70
0
62
5
6
CONTINUOUS
0
LAYER
2
BALLOON
70
0
62
2
6
CONTINUOUS
0
LAYER
2
TABLE
70
0
62
4
6
CONTINUOUS
0
ENDTAB
0
ENDSEC
0
SECTION
2
ENTITIES
0
LINE
8
OUTLINE
10
0
20
0
30
0
11
6300
21
0
31
0
0
LINE
8
OUTLINE
10
6300
20
0
30
0
11
6300
21
2450
31
0
0
LINE
8
OUTLINE
10
6300
20
2450
30
0
11
0
21
2450
31
0
0
LINE
8
OUTLINE
10
0
20
2450
30
0
11
0
21
0
31
0
0
TEXT
8
TEXT
10
120
20
1225
30
0
40
60
1
MIXING
0
LINE
8
SECTION
10
1800
20
0
30
0
11
1800
21
2450
31
0
0
TEXT
8
TEXT
10
1920
20
1225
30
0
40
60
1
COIL
0
LINE
8
SECTION
10
3600
20
0
30
0
11
3600
21
2450
31
0
0
TEXT
8
TEXT
10
3720
20
1225
30
0
40
60
1
HUMID
0
LINE
8
SECTION
10
4500
20
0
30
0
11
4500
21
2450
31
0
0
TEXT
8
TEXT
10
4620
20
1225
30
0
40
60
1
DAMPER
0
LINE
8
OUTLINE
10
0
20
150
30
0
11
6300
21
150
31
0
0
LINE
8
OUTLINE
10
0
20
2300
30
0
11
6300
21
2300
31
0
0
TEXT
8
DIM
10
6500
20
75
30
0
40
60
1
FRAME=150
0
TEXT
8
DIM
10
6500
20
1225
30
0
40
60
1
CASING H=2150
0
LINE
8
DIM
10
0
20
1225
30
0
11
6300
21
1225
31
0
0
LINE
8
DIM
10
0
20
-300
30
0
11
6300
21
-300
31
0
0
TEXT
8
TEXT
10
2950
20
-420
30
0
40
70
1
L=6300
0
LINE
8
DIM
10
-300
20
0
30
0
11
-300
21
2450
31
0
0
TEXT
8
TEXT
10
-900
20
1225
30
0
40
70
1
H=2450
0
TEXT
8
TEXT
10
0
20
2750
30
0
40
90
1
EDIM EU-55-2123-630SS - FRONT - DIM 55 (W1650 H2450)
0
ENDSEC
0
EOF
