0
SECTION
2
HEADER
9
$ACADVER
1
AC1009
9
$INSUNITS
70
4
0
ENDSEC
0
SECTION
2
TABLES
0
TABLE
2
LAYER
70
7
0
LAYER
2
0
70
0
62
7
6
CONTINUOUS
0
LAYER
2
OUTLINE
70
0
62
7
6
CONTINUOUS
0
LAYER
2
SECTION
70
0
62
3
6
CONTINUOUS
0
LAYER
2
DIM
70
0
62
1
6
CONTINUOUS
0
LAYER
2
TEXT
70
0
62
5
6
CONTINUOUS
0
LAYER
2
BALLOON
70
0
62
2
6
CONTINUOUS
0
LAYER
2
TABLE
70
0
62
4
6
CONTINUOUS
0
ENDTAB
0
ENDSEC
0
SECTION
2
ENTITIES
0
LINE
8
OUTLINE
10
0
20
0
30
0
11
4650
21
0
31
0
0
LINE
8
OUTLINE
10
4650
20
0
30
0
11
4650
21
2440
31
0
0
LINE
8
OUTLINE
10
4650
20
2440
30
0
11
0
21
2440
31
0
0
LINE
8
OUTLINE
10
0
20
2440
30
0
11
0
21
0
31
0
0
TEXT
8
TEXT
10
120
20
1220
30
0
40
60
1
MIXING
0
LINE
8
SECTION
10
900
20
0
30
0
11
900
21
2440
31
0
0
TEXT
8
TEXT
10
1020
20
1220
30
0
40
60
1
FAN
0
LINE
8
SECTION
10
1500
20
0
30
0
11
1500
21
2440
31
0
0
TEXT
8
TEXT
10
1620
20
1220
30
0
40
60
1
HUMID
0
LINE
8
SECTION
10
2700
20
0
30
0
11
2700
21
2440
31
0
0
TEXT
8
TEXT
10
2820
20
1220
30
0
40
60
1
DAMPER
0
LINE
8
SECTION
10
3750
20
0
30
0
11
3750
21
2440
31
0
0
TEXT
8
TEXT
10
3870
20
1220
30
0
40
60
1
SILENCER
0
LINE
8
OUTLINE
10
0
20
120
30
0
11
4650
21
120
31
0
0
LINE
8
OUTLINE
10
0
20
2320
30
0
11
4650
21
2320
31
0
0
TEXT
8
DIM
10
4850
20
60
30
0
40
60
1
FRAME=120
0
TEXT
8
DIM
10
4850
20
1220
30
0
40
60
1
CASING H=2200
0
LINE
8
DIM
10
0
20
1220
30
0
11
4650
21
1220
31
0
0
LINE
8
DIM
10
0
20
-300
30
0
11
4650
21
-300
31
0
0
TEXT
8
TEXT
10
2125
20
-420
30
0
40
70
1
L=4650
0
LINE
8
DIM
10
-300
20
0
30
0
11
-300
21
2440
31
0
0
TEXT
8
TEXT
10
-900
20
1220
30
0
40
70
1
H=2440
0
TEXT
8
TEXT
10
0
20
2740
30
0
40
90
1
EDIM EU-25-2123-630SS - FRONT - DIM 25 (W1750 H2440)
0
ENDSEC
0
EOF
