0
SECTION
2
HEADER
9
$ACADVER
1
AC1009
9
$INSUNITS
70
4
0
ENDSEC
0
SECTION
2
TABLES
0
TABLE
2
LAYER
70
7
0
LAYER
2
0
70
0
62
7
6
CONTINUOUS
0
LAYER
2
OUTLINE
70
0
62
7
6
CONTINUOUS
0
LAYER
2
SECTION
70
0
62
3
6
CONTINUOUS
0
LAYER
2
DIM
70
0
62
1
6
CONTINUOUS
0
LAYER
2
TEXT
70
0
62
5
6
CONTINUOUS
0
LAYER
2
BALLOON
70
0
62
2
6
CONTINUOUS
0
LAYER
2
TABLE
70
0
62
4
6
CONTINUOUS
0
ENDTAB
0
ENDSEC
0
SECTION
2
ENTITIES
0
LINE
8
OUTLINE
10
0
20
0
30
0
11
5550
21
0
31
0
0
LINE
8
OUTLINE
10
5550
20
0
30
0
11
5550
21
2750
31
0
0
LINE
8
OUTLINE
10
5550
20
2750
30
0
11
0
21
2750
31
0
0
LINE
8
OUTLINE
10
0
20
2750
30
0
11
0
21
0
31
0
0
TEXT
8
TEXT
10
120
20
1375
30
0
40
60
1
MIXING
0
LINE
8
SECTION
10
1800
20
0
30
0
11
1800
21
2750
31
0
0
TEXT
8
TEXT
10
1920
20
1375
30
0
40
60
1
COIL
0
LINE
8
SECTION
10
2550
20
0
30
0
11
2550
21
2750
31
0
0
TEXT
8
TEXT
10
2670
20
1375
30
0
40
60
1
HUMID
0
LINE
8
SECTION
10
3450
20
0
30
0
11
3450
21
2750
31
0
0
TEXT
8
TEXT
10
3570
20
1375
30
0
40
60
1
DAMPER
0
LINE
8
SECTION
10
4950
20
0
30
0
11
4950
21
2750
31
0
0
TEXT
8
TEXT
10
5070
20
1375
30
0
40
60
1
SILENCER
0
LINE
8
OUTLINE
10
0
20
150
30
0
11
5550
21
150
31
0
0
LINE
8
OUTLINE
10
0
20
2600
30
0
11
5550
21
2600
31
0
0
TEXT
8
DIM
10
5750
20
75
30
0
40
60
1
FRAME=150
0
TEXT
8
DIM
10
5750
20
1375
30
0
40
60
1
CASING H=2450
0
LINE
8
DIM
10
0
20
1375
30
0
11
5550
21
1375
31
0
0
LINE
8
DIM
10
0
20
-300
30
0
11
5550
21
-300
31
0
0
TEXT
8
TEXT
10
2575
20
-420
30
0
40
70
1
L=5550
0
LINE
8
DIM
10
-300
20
0
30
0
11
-300
21
2750
31
0
0
TEXT
8
TEXT
10
-900
20
1375
30
0
40
70
1
H=2750
0
TEXT
8
TEXT
10
0
20
3050
30
0
40
90
1
EDIM EU-25-2123-630SS - FRONT - DIM 25 (W2950 H2750)
0
ENDSEC
0
EOF
