0
SECTION
2
HEADER
9
$ACADVER
1
AC1009
9
$INSUNITS
70
4
0
ENDSEC
0
SECTION
2
TABLES
0
TABLE
2
LAYER
70
7
0
LAYER
2
0
70
0
62
7
6
CONTINUOUS
0
LAYER
2
OUTLINE
70
0
62
7
6
CONTINUOUS
0
LAYER
2
SECTION
70
0
62
3
6
CONTINUOUS
0
LAYER
2
DIM
70
0
62
1
6
CONTINUOUS
0
LAYER
2
TEXT
70
0
62
5
6
CONTINUOUS
0
LAYER
2
BALLOON
70
0
62
2
6
CONTINUOUS
0
LAYER
2
TABLE
70
0
62
4
6
CONTINUOUS
0
ENDTAB
0
ENDSEC
0
SECTION
2
ENTITIES
0
LINE
8
OUTLINE
10
0
20
0
30
0
11
4200
21
0
31
0
0
LINE
8
OUTLINE
10
4200
20
0
30
0
11
4200
21
2400
31
0
0
LINE
8
OUTLINE
10
4200
20
2400
30
0
11
0
21
2400
31
0
0
LINE
8
OUTLINE
10
0
20
2400
30
0
11
0
21
0
31
0
0
TEXT
8
TEXT
10
120
20
1200
30
0
40
60
1
MIXING
0
LINE
8
SECTION
10
600
20
0
30
0
11
600
21
2400
31
0
0
TEXT
8
TEXT
10
720
20
1200
30
0
40
60
1
FILTER
0
LINE
8
SECTION
10
1350
20
0
30
0
11
1350
21
2400
31
0
0
TEXT
8
TEXT
10
1470
20
1200
30
0
40
60
1
COIL
0
LINE
8
SECTION
10
2100
20
0
30
0
11
2100
21
2400
31
0
0
TEXT
8
TEXT
10
2220
20
1200
30
0
40
60
1
FAN
0
LINE
8
SECTION
10
3150
20
0
30
0
11
3150
21
2400
31
0
0
TEXT
8
TEXT
10
3270
20
1200
30
0
40
60
1
HUMID
0
LINE
8
OUTLINE
10
0
20
100
30
0
11
4200
21
100
31
0
0
LINE
8
OUTLINE
10
0
20
2300
30
0
11
4200
21
2300
31
0
0
TEXT
8
DIM
10
4400
20
50
30
0
40
60
1
FRAME=100
0
TEXT
8
DIM
10
4400
20
1200
30
0
40
60
1
CASING H=2200
0
LINE
8
DIM
10
0
20
1200
30
0
11
4200
21
1200
31
0
0
LINE
8
DIM
10
0
20
-300
30
0
11
4200
21
-300
31
0
0
TEXT
8
TEXT
10
1900
20
-420
30
0
40
70
1
L=4200
0
LINE
8
DIM
10
-300
20
0
30
0
11
-300
21
2400
31
0
0
TEXT
8
TEXT
10
-900
20
1200
30
0
40
70
1
H=2400
0
TEXT
8
TEXT
10
0
20
2700
30
0
40
90
1
EDIM EU-25-2123-630SS - FRONT - DIM 25 (W1950 H2400)
0
ENDSEC
0
EOF
