0
SECTION
2
HEADER
9
$ACADVER
1
AC1009
9
$INSUNITS
70
4
0
ENDSEC
0
SECTION
2
TABLES
0
TABLE
2
LAYER
70
7
0
LAYER
2
0
70
0
62
7
6
CONTINUOUS
0
LAYER
2
OUTLINE
70
0
62
7
6
CONTINUOUS
0
LAYER
2
SECTION
70
0
62
3
6
CONTINUOUS
0
LAYER
2
DIM
70
0
62
1
6
CONTINUOUS
0
LAYER
2
TEXT
70
0
62
5
6
CONTINUOUS
0
LAYER
2
BALLOON
70
0
62
2
6
CONTINUOUS
0
LAYER
2
TABLE
70
0
62
4
6
CONTINUOUS
0
ENDTAB
0
ENDSEC
0
SECTION
2
ENTITIES
0
LINE
8
OUTLINE
10
0
20
0
30
0
11
7800
21
0
31
0
0
LINE
8
OUTLINE
10
7800
20
0
30
0
11
7800
21
2010
31
0
0
LINE
8
OUTLINE
10
7800
20
2010
30
0
11
0
21
2010
31
0
0
LINE
8
OUTLINE
10
0
20
2010
30
0
11
0
21
0
31
0
0
TEXT
8
TEXT
10
120
20
1005
30
0
40
60
1
MIXING
0
LINE
8
SECTION
10
1200
20
0
30
0
11
1200
21
2010
31
0
0
TEXT
8
TEXT
10
1320
20
1005
30
0
40
60
1
FILTER
0
LINE
8
SECTION
10
3000
20
0
30
0
11
3000
21
2010
31
0
0
TEXT
8
TEXT
10
3120
20
1005
30
0
40
60
1
FAN
0
LINE
8
SECTION
10
4050
20
0
30
0
11
4050
21
2010
31
0
0
TEXT
8
TEXT
10
4170
20
1005
30
0
40
60
1
HUMID
0
LINE
8
SECTION
10
5550
20
0
30
0
11
5550
21
2010
31
0
0
TEXT
8
TEXT
10
5670
20
1005
30
0
40
60
1
DAMPER
0
LINE
8
SECTION
10
6300
20
0
30
0
11
6300
21
2010
31
0
0
TEXT
8
TEXT
10
6420
20
1005
30
0
40
60
1
SILENCER
0
LINE
8
OUTLINE
10
0
20
80
30
0
11
7800
21
80
31
0
0
LINE
8
OUTLINE
10
0
20
1930
30
0
11
7800
21
1930
31
0
0
TEXT
8
DIM
10
8000
20
40
30
0
40
60
1
FRAME=80
0
TEXT
8
DIM
10
8000
20
1005
30
0
40
60
1
CASING H=1850
0
LINE
8
DIM
10
0
20
1005
30
0
11
7800
21
1005
31
0
0
LINE
8
DIM
10
0
20
-300
30
0
11
7800
21
-300
31
0
0
TEXT
8
TEXT
10
3700
20
-420
30
0
40
70
1
L=7800
0
LINE
8
DIM
10
-300
20
0
30
0
11
-300
21
2010
31
0
0
TEXT
8
TEXT
10
-900
20
1005
30
0
40
70
1
H=2010
0
TEXT
8
TEXT
10
0
20
2310
30
0
40
90
1
EDIM EU-25-2123-630SS - FRONT - DIM 25 (W2250 H2010)
0
ENDSEC
0
EOF
