0
SECTION
2
HEADER
9
$ACADVER
1
AC1009
9
$INSUNITS
70
4
0
ENDSEC
0
SECTION
2
TABLES
0
TABLE
2
LAYER
70
7
0
LAYER
2
0
70
0
62
7
6
CONTINUOUS
0
LAYER
2
OUTLINE
70
0
62
7
6
CONTINUOUS
0
LAYER
2
SECTION
70
0
62
3
6
CONTINUOUS
0
LAYER
2
DIM
70
0
62
1
6
CONTINUOUS
0
LAYER
2
TEXT
70
0
62
5
6
CONTINUOUS
0
LAYER
2
BALLOON
70
0
62
2
6
CONTINUOUS
0
LAYER
2
TABLE
70
0
62
4
6
CONTINUOUS
0
ENDTAB
0
ENDSEC
0
SECTION
2
ENTITIES
0
LINE
8
OUTLINE
10
0
20
0
30
0
11
4350
21
0
31
0
0
LINE
8
OUTLINE
10
4350
20
0
30
0
11
4350
21
2000
31
0
0
LINE
8
OUTLINE
10
4350
20
2000
30
0
11
0
21
2000
31
0
0
LINE
8
OUTLINE
10
0
20
2000
30
0
11
0
21
0
31
0
0
TEXT
8
TEXT
10
120
20
1000
30
0
40
60
1
MIXING
0
LINE
8
SECTION
10
900
20
0
30
0
11
900
21
2000
31
0
0
TEXT
8
TEXT
10
1020
20
1000
30
0
40
60
1
FILTER
0
LINE
8
SECTION
10
1800
20
0
30
0
11
1800
21
2000
31
0
0
TEXT
8
TEXT
10
1920
20
1000
30
0
40
60
1
COIL
0
LINE
8
SECTION
10
3300
20
0
30
0
11
3300
21
2000
31
0
0
TEXT
8
TEXT
10
3420
20
1000
30
0
40
60
1
DAMPER
0
LINE
8
OUTLINE
10
0
20
100
30
0
11
4350
21
100
31
0
0
LINE
8
OUTLINE
10
0
20
1900
30
0
11
4350
21
1900
31
0
0
TEXT
8
DIM
10
4550
20
50
30
0
40
60
1
FRAME=100
0
TEXT
8
DIM
10
4550
20
1000
30
0
40
60
1
CASING H=1800
0
LINE
8
DIM
10
0
20
1000
30
0
11
4350
21
1000
31
0
0
LINE
8
DIM
10
0
20
-300
30
0
11
4350
21
-300
31
0
0
TEXT
8
TEXT
10
1975
20
-420
30
0
40
70
1
LENGTH=171.26in
0
LINE
8
DIM
10
-300
20
0
30
0
11
-300
21
2000
31
0
0
TEXT
8
TEXT
10
-900
20
1000
30
0
40
70
1
H=2000
0
TEXT
8
TEXT
10
0
20
2300
30
0
40
90
1
EDIM EU-25-2123-630SS - FRONT - DIM 25 (W1850 H2000)
0
ENDSEC
0
EOF
